<?xml version="1.0" standalone="no"?>
<!DOCTYPE svg PUBLIC "-//W3C//DTD SVG 20010904//EN"
 "http://www.w3.org/TR/2001/REC-SVG-20010904/DTD/svg10.dtd">
<svg version="1.0" xmlns="http://www.w3.org/2000/svg"
 width="484.000000pt" height="227.000000pt" viewBox="0 0 484.000000 227.000000"
 preserveAspectRatio="xMidYMid meet">

<g transform="translate(0.000000,227.000000) scale(0.100000,-0.100000)"
fill="#000000" stroke="none">
<path d="M2412 2107 c-43 -13 -98 -76 -112 -127 -7 -27 -10 -144 -8 -343 3
-290 4 -304 25 -343 30 -57 79 -85 157 -91 104 -9 172 25 207 101 16 35 19 68
19 224 l0 182 -95 0 -95 0 0 -59 0 -60 33 -3 32 -3 0 -113 c0 -108 -1 -115
-24 -133 -30 -24 -76 -24 -100 0 -28 28 -33 93 -29 369 l3 244 28 24 c32 27
45 29 81 13 30 -14 46 -55 46 -120 l0 -49 60 0 60 0 0 78 c0 83 -20 141 -58
175 -47 42 -155 58 -230 34z"/>
<path d="M3437 2105 c-52 -18 -83 -49 -104 -104 -16 -40 -18 -83 -18 -351 0
-293 1 -307 21 -345 40 -73 97 -105 189 -105 103 0 175 48 200 134 19 63 22
571 4 643 -29 114 -165 174 -292 128z m138 -130 l25 -24 0 -291 0 -291 -25
-24 c-13 -14 -36 -25 -50 -25 -14 0 -37 11 -50 25 l-25 24 0 291 0 291 25 24
c13 14 36 25 50 25 14 0 37 -11 50 -25z"/>
<path d="M110 1660 l0 -450 60 0 60 0 0 322 c0 182 4 318 9 313 4 -6 27 -138
50 -295 23 -157 44 -297 47 -312 5 -27 8 -28 65 -28 32 0 59 2 59 5 0 2 20
138 45 302 25 163 45 303 45 310 0 7 5 13 10 13 6 0 10 -6 9 -12 -1 -7 -1
-149 0 -315 l1 -303 65 0 65 0 0 450 0 451 -102 -3 -102 -3 -33 -235 c-54
-392 -56 -405 -60 -393 -2 6 -23 150 -46 320 l-43 308 -102 3 -102 3 0 -451z"/>
<path d="M846 1683 c-37 -236 -70 -438 -73 -450 -5 -22 -2 -23 60 -23 l64 0
14 88 14 87 81 3 81 3 12 -91 13 -90 70 0 c62 0 70 2 66 18 -3 9 -36 212 -74
449 l-69 433 -95 0 -95 0 -69 -427z m194 37 c17 -117 30 -214 30 -216 0 -2
-29 -4 -65 -4 -36 0 -65 2 -65 5 0 9 49 365 56 404 3 18 7 31 10 28 2 -2 18
-100 34 -217z"/>
<path d="M1330 1661 l0 -451 65 0 65 0 2 193 3 192 29 3 c44 5 74 -6 93 -35
15 -22 19 -57 23 -187 l5 -161 66 -3 65 -3 -3 88 c-1 48 -4 131 -6 183 -4 105
-21 153 -63 172 l-24 11 34 32 c45 41 59 97 54 206 -5 105 -27 154 -84 183
-33 18 -61 21 -181 24 l-143 3 0 -450z m244 308 c25 -19 26 -25 26 -114 0 -90
-1 -94 -27 -115 -20 -15 -38 -20 -67 -18 l-41 3 -3 119 c-1 66 0 126 2 133 8
21 80 16 110 -8z"/>
<path d="M1850 1660 l0 -450 65 0 65 0 0 450 0 450 -65 0 -65 0 0 -450z"/>
<path d="M2810 1660 l0 -450 65 0 65 0 2 193 3 192 48 -1 c83 -1 96 -34 97
-251 l0 -133 68 0 67 0 -3 162 c-2 90 -8 180 -13 202 -10 38 -41 77 -70 89
-11 5 -11 8 4 17 57 36 77 87 77 195 0 89 -14 137 -50 179 -40 45 -86 56 -234
56 l-126 0 0 -450z m244 309 c25 -19 26 -25 26 -110 0 -82 -2 -92 -25 -114
-18 -19 -35 -25 -70 -25 l-45 0 0 128 c0 71 3 132 7 135 14 15 81 6 107 -14z"/>
<path d="M3840 1730 c0 -402 2 -422 48 -474 65 -73 249 -73 314 0 46 52 48 72
48 474 l0 380 -65 0 -65 0 0 -369 c0 -357 -1 -369 -21 -395 -25 -31 -66 -34
-100 -7 l-24 19 -3 376 -3 376 -64 0 -65 0 0 -380z"/>
<path d="M4360 1660 l0 -450 70 0 70 0 0 185 0 185 56 0 c167 0 235 91 221
300 -7 99 -24 147 -67 183 -44 38 -89 47 -227 47 l-123 0 0 -450z m251 311
c22 -18 24 -26 24 -124 0 -129 -11 -147 -87 -147 l-48 0 0 145 0 145 44 0 c28
0 52 -7 67 -19z"/>
</g>
</svg>
