<?xml version="1.0" encoding="UTF-8" standalone="no"?>
<svg width="134px" height="134px" viewBox="0 0 134 134" version="1.1" xmlns="http://www.w3.org/2000/svg" xmlns:xlink="http://www.w3.org/1999/xlink">
    <!-- Generator: Sketch 43.2 (39069) - http://www.bohemiancoding.com/sketch -->
    <title>Stoerer_V2</title>
    <desc>Created with Sketch.</desc>
    <defs></defs>
    <g id="Symbols" stroke="none" stroke-width="1" fill="none" fill-rule="evenodd">
        <g id="Stoerer_V2">
            <g>
                <circle id="Oval" fill="#43ADAC" cx="67" cy="67" r="67"></circle>
                <path d="M31.286188,78.3991233 L30.4499413,78.3991233 L30.4499413,82.0279737 L28.5933201,82.0279737 L28.5933201,70.0596722 L30.4499413,70.0596722 L30.4499413,76.9030856 L31.2248121,76.9030856 L33.3192649,73.7268825 L35.5134535,73.7268825 L32.7745537,77.5015007 L35.9200688,82.0279737 L33.7565682,82.0279737 L31.286188,78.3991233 Z M36.46478,77.8007083 C36.46478,76.5680693 36.8023441,75.555377 37.4774824,74.7626009 C38.1628501,73.9698249 39.0911514,73.5734428 40.2624142,73.5734428 C41.4541356,73.5734428 42.3875515,73.9698249 43.0626898,74.7626009 C43.7429429,75.5502623 44.0830643,76.5629546 44.0830643,77.8007083 L44.0830643,77.96182 C44.0830643,79.209803 43.7429429,80.2276099 43.0626898,81.0152713 C42.3875515,81.797818 41.4592502,82.1890855 40.2777581,82.1890855 C39.0911514,82.1890855 38.1577355,81.7952607 37.4774824,81.0075993 C36.8023441,80.2199379 36.46478,79.2046883 36.46478,77.96182 L36.46478,77.8007083 Z M38.3290731,77.96182 C38.3290731,78.7699401 38.487626,79.4297245 38.8047364,79.941193 C39.1167321,80.4475467 39.6077345,80.7007198 40.2777581,80.7007198 C40.927323,80.7007198 41.4132108,80.4475467 41.7354359,79.941193 C42.0627757,79.4297245 42.2264431,78.7699401 42.2264431,77.96182 L42.2264431,77.8007083 C42.2264431,77.0079322 42.0627757,76.3558197 41.7354359,75.8443513 C41.4132108,75.3277682 40.9222084,75.0694805 40.2624142,75.0694805 C39.6128492,75.0694805 39.1269615,75.3277682 38.8047364,75.8443513 C38.487626,76.3609344 38.3290731,77.0130469 38.3290731,77.8007083 L38.3290731,77.96182 Z M50.3740946,79.7724092 C50.3740946,79.4859869 50.251344,79.2481576 50.0058391,79.0589143 C49.7603343,78.869671 49.3025769,78.7034462 48.6325532,78.5602351 C47.6403045,78.350533 46.8897358,78.0526071 46.3808247,77.6664485 C45.8719136,77.2802898 45.6174619,76.7547639 45.6174619,76.0898549 C45.6174619,75.3942578 45.9115518,74.8009633 46.4997405,74.3099536 C47.0879292,73.8189439 47.8627923,73.5734428 48.8243529,73.5734428 C49.8370604,73.5734428 50.6413325,73.8227799 51.2371932,74.3214616 C51.833054,74.8201433 52.1181933,75.4377322 52.0926199,76.1742468 L52.0772759,76.2202787 L50.2897027,76.2202787 C50.2897027,75.8775948 50.1592802,75.5835049 49.8984313,75.3380001 C49.6375824,75.0924952 49.2795599,74.9697446 48.8243529,74.9697446 C48.3742607,74.9697446 48.031582,75.0707581 47.7963065,75.2727882 C47.5610311,75.4748182 47.4433951,75.721598 47.4433951,76.013135 C47.4433951,76.304672 47.5546378,76.536108 47.7771266,76.7074499 C47.9996153,76.8787919 48.4509795,77.0309514 49.1312325,77.1639332 C50.1746281,77.37875 50.9482125,77.6817905 51.4520089,78.0730638 C51.9558053,78.4643372 52.2076997,78.997535 52.2076997,79.6726734 C52.2076997,80.4194173 51.8995446,81.0254983 51.2832252,81.4909346 C50.6669057,81.9563708 49.8549617,82.1890855 48.8473689,82.1890855 C47.7681705,82.1890855 46.9165883,81.9128967 46.2925969,81.3605108 C45.6686054,80.8081249 45.3719581,80.1739135 45.4026462,79.4578577 L45.4179902,79.4118258 L47.1518595,79.4118258 C47.1723183,79.8926061 47.3462149,80.2429567 47.6735547,80.4628882 C48.0008945,80.6828196 48.3998339,80.7927836 48.8703849,80.7927836 C49.3511652,80.7927836 49.7219743,80.7007207 49.9828232,80.5165921 C50.2436721,80.3324634 50.3740946,80.084405 50.3740946,79.7724092 Z M56.1971336,71.7091497 L56.1971336,73.7268825 L57.6854993,73.7268825 L57.6854993,75.1078404 L56.1971336,75.1078404 L56.1971336,79.6956893 C56.1971336,80.0383732 56.2712954,80.2825957 56.4196212,80.4283642 C56.5679471,80.5741327 56.7648595,80.6470159 57.0103643,80.6470159 C57.112658,80.6470159 57.2123929,80.6380653 57.3095719,80.6201639 C57.4067509,80.6022625 57.4988138,80.5779681 57.5857634,80.54728 L57.7852351,81.9128939 C57.6266799,81.9998436 57.4374394,82.0676121 57.217508,82.1162016 C56.9975766,82.1647911 56.7699765,82.1890855 56.5347011,82.1890855 C55.8493334,82.1890855 55.3122995,81.9883371 54.9235835,81.5868344 C54.5348675,81.1853317 54.3405124,80.5549563 54.3405124,79.6956893 L54.3405124,75.1078404 L53.0746344,75.1078404 L53.0746344,73.7268825 L54.3405124,73.7268825 L54.3405124,71.7091497 L56.1971336,71.7091497 Z M62.9024512,82.1890855 C61.7260738,82.1890855 60.788822,81.8042113 60.0906676,81.0344513 C59.3925132,80.2646913 59.0434412,79.2762934 59.0434412,78.0692278 L59.0434412,77.7623483 C59.0434412,76.5552828 59.3899559,75.5540984 60.0829956,74.758765 C60.7760353,73.9634315 61.64424,73.5683281 62.6876356,73.5734428 C63.8077514,73.5734428 64.6657269,73.9122855 65.2615876,74.5899812 C65.8574483,75.2676769 66.1553742,76.1767984 66.1553742,77.317373 L66.1553742,78.4144673 L60.9767822,78.4144673 L60.9614382,78.4528273 C60.9921263,79.1126215 61.1852028,79.6522126 61.5406733,80.0716168 C61.8961439,80.4910209 62.3884249,80.7007198 63.0175311,80.7007198 C63.5187701,80.7007198 63.9483972,80.6393445 64.3064251,80.5165921 C64.664453,80.3938396 65.009689,80.2173857 65.3421435,79.9872249 L65.9405585,81.207071 C65.6285628,81.483264 65.2142796,81.7159786 64.6976965,81.9052219 C64.1811133,82.0944652 63.5827043,82.1890855 62.9024512,82.1890855 Z M62.6876356,75.0694805 C62.227314,75.0694805 61.848833,75.2523277 61.5521813,75.6180276 C61.2555296,75.9837276 61.0714037,76.4478782 60.9997982,77.0104935 L61.0151421,77.0488534 L64.3064251,77.0488534 L64.3064251,76.8570537 C64.3064251,76.3302412 64.1721666,75.9006142 63.9036457,75.5681597 C63.6351248,75.2357052 63.2297921,75.0694805 62.6876356,75.0694805 Z M69.3469213,73.7268825 L69.4543291,74.9237127 C69.7254074,74.4991939 70.0668075,74.1680231 70.4785395,73.9301902 C70.8902716,73.6923574 71.3544223,73.5734428 71.8710054,73.5734428 C72.7353871,73.5734428 73.4092366,73.8355664 73.8925743,74.3598216 C74.375912,74.8840767 74.6175772,75.7011353 74.6175772,76.8110218 L74.6175772,82.0279737 L72.753284,82.0279737 L72.753284,76.8263658 C72.753284,76.2023743 72.6241402,75.7586821 72.3658486,75.4952758 C72.1075571,75.2318696 71.7150109,75.1001684 71.1881985,75.1001684 C70.8250559,75.1001684 70.5002783,75.1807235 70.213856,75.3418361 C69.9274336,75.5029486 69.6921617,75.7241554 69.508033,76.005463 L69.508033,82.0279737 L67.6437399,82.0279737 L67.6437399,73.7268825 L69.3469213,73.7268825 Z M78.5456351,82.0279737 L76.681342,82.0279737 L76.681342,70.0596722 L78.5456351,70.0596722 L78.5456351,82.0279737 Z M80.2871764,77.8007083 C80.2871764,76.5680693 80.6247405,75.555377 81.2998789,74.7626009 C81.9852466,73.9698249 82.9135478,73.5734428 84.0848106,73.5734428 C85.276532,73.5734428 86.2099479,73.9698249 86.8850862,74.7626009 C87.5653393,75.5502623 87.9054607,76.5629546 87.9054607,77.8007083 L87.9054607,77.96182 C87.9054607,79.209803 87.5653393,80.2276099 86.8850862,81.0152713 C86.2099479,81.797818 85.2816466,82.1890855 84.1001545,82.1890855 C82.9135478,82.1890855 81.9801319,81.7952607 81.2998789,81.0075993 C80.6247405,80.2199379 80.2871764,79.2046883 80.2871764,77.96182 L80.2871764,77.8007083 Z M82.1514695,77.96182 C82.1514695,78.7699401 82.3100224,79.4297245 82.6271328,79.941193 C82.9391286,80.4475467 83.4301309,80.7007198 84.1001545,80.7007198 C84.7497195,80.7007198 85.2356072,80.4475467 85.5578323,79.941193 C85.8851721,79.4297245 86.0488395,78.7699401 86.0488395,77.96182 L86.0488395,77.8007083 C86.0488395,77.0079322 85.8851721,76.3558197 85.5578323,75.8443513 C85.2356072,75.3277682 84.7446048,75.0694805 84.0848106,75.0694805 C83.4352456,75.0694805 82.9493579,75.3277682 82.6271328,75.8443513 C82.3100224,76.3609344 82.1514695,77.0130469 82.1514695,77.8007083 L82.1514695,77.96182 Z M94.196491,79.7724092 C94.196491,79.4859869 94.0737404,79.2481576 93.8282355,79.0589143 C93.5827307,78.869671 93.1249733,78.7034462 92.4549497,78.5602351 C91.4627009,78.350533 90.7121322,78.0526071 90.2032211,77.6664485 C89.69431,77.2802898 89.4398583,76.7547639 89.4398583,76.0898549 C89.4398583,75.3942578 89.7339482,74.8009633 90.3221369,74.3099536 C90.9103256,73.8189439 91.6851887,73.5734428 92.6467494,73.5734428 C93.6594569,73.5734428 94.4637289,73.8227799 95.0595896,74.3214616 C95.6554504,74.8201433 95.9405897,75.4377322 95.9150163,76.1742468 L95.8996723,76.2202787 L94.1120991,76.2202787 C94.1120991,75.8775948 93.9816766,75.5835049 93.7208277,75.3380001 C93.4599788,75.0924952 93.1019563,74.9697446 92.6467494,74.9697446 C92.1966571,74.9697446 91.8539784,75.0707581 91.6187029,75.2727882 C91.3834275,75.4748182 91.2657915,75.721598 91.2657915,76.013135 C91.2657915,76.304672 91.3770342,76.536108 91.599523,76.7074499 C91.8220117,76.8787919 92.2733759,77.0309514 92.9536289,77.1639332 C93.9970245,77.37875 94.7706089,77.6817905 95.2744053,78.0730638 C95.7782017,78.4643372 96.0300961,78.997535 96.0300961,79.6726734 C96.0300961,80.4194173 95.721941,81.0254983 95.1056216,81.4909346 C94.4893021,81.9563708 93.6773581,82.1890855 92.6697653,82.1890855 C91.5905669,82.1890855 90.7389848,81.9128967 90.1149933,81.3605108 C89.4910018,80.8081249 89.1943545,80.1739135 89.2250426,79.4578577 L89.2403866,79.4118258 L90.9742559,79.4118258 C90.9947147,79.8926061 91.1686113,80.2429567 91.4959511,80.4628882 C91.8232909,80.6828196 92.2222303,80.7927836 92.6927813,80.7927836 C93.1735616,80.7927836 93.5443707,80.7007207 93.8052196,80.5165921 C94.0660685,80.3324634 94.196491,80.084405 94.196491,79.7724092 Z M101.262392,82.1890855 C100.086015,82.1890855 99.1487628,81.8042113 98.4506084,81.0344513 C97.752454,80.2646913 97.403382,79.2762934 97.403382,78.0692278 L97.403382,77.7623483 C97.403382,76.5552828 97.7498967,75.5540984 98.4429364,74.758765 C99.1359761,73.9634315 100.004181,73.5683281 101.047576,73.5734428 C102.167692,73.5734428 103.025668,73.9122855 103.621528,74.5899812 C104.217389,75.2676769 104.515315,76.1767984 104.515315,77.317373 L104.515315,78.4144673 L99.336723,78.4144673 L99.3213791,78.4528273 C99.3520672,79.1126215 99.5451436,79.6522126 99.9006142,80.0716168 C100.256085,80.4910209 100.748366,80.7007198 101.377472,80.7007198 C101.878711,80.7007198 102.308338,80.6393445 102.666366,80.5165921 C103.024394,80.3938396 103.36963,80.2173857 103.702084,79.9872249 L104.300499,81.207071 C103.988504,81.483264 103.57422,81.7159786 103.057637,81.9052219 C102.541054,82.0944652 101.942645,82.1890855 101.262392,82.1890855 Z M101.047576,75.0694805 C100.587255,75.0694805 100.208774,75.2523277 99.9121222,75.6180276 C99.6154705,75.9837276 99.4313446,76.4478782 99.359739,77.0104935 L99.375083,77.0488534 L102.666366,77.0488534 L102.666366,76.8570537 C102.666366,76.3302412 102.532107,75.9006142 102.263587,75.5681597 C101.995066,75.2357052 101.589733,75.0694805 101.047576,75.0694805 Z M110.683594,79.7724092 C110.683594,79.4859869 110.560843,79.2481576 110.315338,79.0589143 C110.069833,78.869671 109.612076,78.7034462 108.942052,78.5602351 C107.949803,78.350533 107.199235,78.0526071 106.690324,77.6664485 C106.181413,77.2802898 105.926961,76.7547639 105.926961,76.0898549 C105.926961,75.3942578 106.221051,74.8009633 106.80924,74.3099536 C107.397428,73.8189439 108.172291,73.5734428 109.133852,73.5734428 C110.146559,73.5734428 110.950831,73.8227799 111.546692,74.3214616 C112.142553,74.8201433 112.427692,75.4377322 112.402119,76.1742468 L112.386775,76.2202787 L110.599202,76.2202787 C110.599202,75.8775948 110.468779,75.5835049 110.20793,75.3380001 C109.947081,75.0924952 109.589059,74.9697446 109.133852,74.9697446 C108.68376,74.9697446 108.341081,75.0707581 108.105806,75.2727882 C107.87053,75.4748182 107.752894,75.721598 107.752894,76.013135 C107.752894,76.304672 107.864137,76.536108 108.086626,76.7074499 C108.309114,76.8787919 108.760478,77.0309514 109.440731,77.1639332 C110.484127,77.37875 111.257711,77.6817905 111.761508,78.0730638 C112.265304,78.4643372 112.517199,78.997535 112.517199,79.6726734 C112.517199,80.4194173 112.209044,81.0254983 111.592724,81.4909346 C110.976405,81.9563708 110.164461,82.1890855 109.156868,82.1890855 C108.077669,82.1890855 107.226087,81.9128967 106.602096,81.3605108 C105.978104,80.8081249 105.681457,80.1739135 105.712145,79.4578577 L105.727489,79.4118258 L107.461359,79.4118258 C107.481817,79.8926061 107.655714,80.2429567 107.983054,80.4628882 C108.310394,80.6828196 108.709333,80.7927836 109.179884,80.7927836 C109.660664,80.7927836 110.031473,80.7007207 110.292322,80.5165921 C110.553171,80.3324634 110.683594,80.084405 110.683594,79.7724092 Z M29.3102976,95.3073353 L23.9322339,95.3073353 L23.9322339,99.9412162 L30.0928404,99.9412162 L30.0928404,100.716087 L23.0192673,100.716087 L23.0192673,89.5456722 L30.0544805,89.5456722 L30.0544805,90.328215 L23.9322339,90.328215 L23.9322339,94.5247925 L29.3102976,94.5247925 L29.3102976,95.3073353 Z M35.6396879,93.2052106 L34.9568809,93.1591786 C34.3789216,93.1591786 33.9045417,93.3215674 33.5337271,93.6463499 C33.1629125,93.9711323 32.8982315,94.4173819 32.7396763,94.9851118 L32.7396763,100.716087 L31.8190378,100.716087 L31.8190378,92.4149958 L32.6245965,92.4149958 L32.7396763,93.7959536 L32.7396763,93.8880175 C32.9800665,93.3765491 33.3022868,92.9776097 33.7063468,92.6911874 C34.1104069,92.404765 34.59118,92.261556 35.1486806,92.261556 C35.2663184,92.261556 35.3801184,92.2705066 35.4900841,92.288408 C35.6000498,92.3063094 35.6908341,92.3254891 35.7624397,92.3459479 L35.6396879,93.2052106 Z M42.1378618,98.6062902 C42.1378618,98.2175742 41.9780303,97.8774528 41.6583626,97.5859158 C41.3386948,97.2943788 40.7620228,97.0565495 39.9283292,96.8724209 C38.9360805,96.6576042 38.2034129,96.3737434 37.7303046,96.0208302 C37.2571963,95.667917 37.0206457,95.1692428 37.0206457,94.5247925 C37.0206457,93.8905717 37.287884,93.3548165 37.8223685,92.917511 C38.356853,92.4802055 39.0639475,92.261556 39.9436732,92.261556 C40.8796605,92.261556 41.6212786,92.492992 42.1685498,92.9558709 C42.715821,93.4187499 42.976666,93.9979792 42.9510926,94.6935763 L42.9357486,94.7396082 L42.0841579,94.7396082 C42.0841579,94.2844013 41.8910815,93.8880192 41.5049228,93.55045 C41.1187641,93.2128809 40.5983528,93.0440988 39.9436732,93.0440988 C39.2736496,93.0440988 38.7711394,93.1885865 38.4361275,93.4775661 C38.1011157,93.7665458 37.9336123,94.1053886 37.9336123,94.4941046 C37.9336123,94.8777059 38.0781,95.1948116 38.3670797,95.4454311 C38.6560593,95.6960506 39.2327313,95.9159788 40.097113,96.1052221 C41.0842471,96.3251535 41.8233079,96.6256367 42.3143176,97.0066807 C42.8053273,97.3877247 43.0508284,97.9055787 43.0508284,98.5602583 C43.0508284,99.2507407 42.7708037,99.8095116 42.2107457,100.236588 C41.6506878,100.663664 40.9103483,100.877199 39.9897051,100.877199 C38.9821123,100.877199 38.1906268,100.636812 37.6152248,100.156032 C37.0398228,99.6752515 36.76747,99.1024155 36.7981581,98.4375065 L36.813502,98.3914746 L37.6574207,98.3914746 C37.6932235,98.9898926 37.9374461,99.4246343 38.3900956,99.6957125 C38.8427452,99.9667908 39.375943,100.102328 39.9897051,100.102328 C40.6546141,100.102328 41.1788614,99.9565616 41.5624627,99.6650246 C41.946064,99.3734876 42.1378618,99.0205797 42.1378618,98.6062902 Z M46.6106309,90.2898551 L46.6106309,92.4149958 L48.4365641,92.4149958 L48.4365641,93.1668506 L46.6106309,93.1668506 L46.6106309,98.5756023 C46.6106309,99.1177588 46.7090871,99.502633 46.9060025,99.7302365 C47.1029178,99.9578399 47.3650415,100.07164 47.6923813,100.07164 C47.8407071,100.07164 47.9851948,100.065247 48.1258486,100.05246 C48.2665024,100.039673 48.4288912,100.017936 48.6130198,99.9872481 L48.7511156,100.670055 C48.5976751,100.736546 48.4109919,100.787692 48.1910605,100.823495 C47.9711291,100.859298 47.7512009,100.877199 47.5312695,100.877199 C46.9481955,100.877199 46.4942741,100.693073 46.1694916,100.324816 C45.8447092,99.9565583 45.6823204,99.373493 45.6823204,98.5756023 L45.6823204,93.1668506 L44.2476586,93.1668506 L44.2476586,92.4149958 L45.6823204,92.4149958 L45.6823204,90.2898551 L46.6106309,90.2898551 Z M53.2238847,96.3430537 L49.5490024,96.3430537 L49.5490024,95.5681829 L53.2238847,95.5681829 L53.2238847,96.3430537 Z M63.1054055,99.388833 C62.854786,99.7519756 62.3983072,100.090818 61.7359556,100.405371 C61.073604,100.719925 60.2386443,100.877199 59.2310515,100.877199 C57.9319216,100.877199 56.8668046,100.434785 56.0356684,99.5499448 C55.2045322,98.6651044 54.7889703,97.5194323 54.7889703,96.1128941 L54.7889703,94.0644732 C54.7889703,92.6835085 55.1840738,91.5582948 55.9742925,90.6887984 C56.7645112,89.8193021 57.7887114,89.3845605 59.0469238,89.3845605 C60.2488746,89.3845605 61.1886837,89.6850437 61.8663794,90.2860191 C62.5440751,90.8869945 62.9366212,91.6682508 63.0440296,92.6298114 L63.0286856,92.6758434 L62.1770949,92.6758434 C62.0441131,91.9290995 61.7295648,91.3242971 61.2334404,90.8614182 C60.737316,90.3985392 60.0084844,90.1671032 59.0469238,90.1671032 C58.0444456,90.1671032 57.2376163,90.5302404 56.6264115,91.2565256 C56.0152067,91.9828107 55.7096089,92.9136693 55.7096089,94.0491293 L55.7096089,96.1128941 C55.7096089,97.2790421 56.0343865,98.2354737 56.6839514,98.9822176 C57.3335163,99.7289616 58.1825412,100.102328 59.2310515,100.102328 C59.9726807,100.102328 60.6030561,99.9987571 61.1221966,99.7916124 C61.641337,99.5844677 61.9955236,99.3581463 62.1847669,99.1126414 L62.1847669,96.1972859 L59.2157075,96.1972859 L59.2157075,95.4147432 L63.1054055,95.4147432 L63.1054055,99.388833 Z M68.7443168,100.877199 C67.7060359,100.877199 66.8429458,100.493603 66.1550208,99.7264005 C65.4670957,98.9591978 65.1231384,97.9874224 65.1231384,96.811045 L65.1231384,96.3890856 C65.1231384,95.2024789 65.4645384,94.2179169 66.1473488,93.4353702 C66.8301592,92.6528235 67.657447,92.261556 68.629237,92.261556 C69.6470592,92.261556 70.4474953,92.5837763 71.0305693,93.2282265 C71.6136433,93.8726768 71.9051759,94.7319308 71.9051759,95.8060145 L71.9051759,96.5885573 L66.043777,96.5885573 L66.043777,96.811045 C66.043777,97.7470322 66.2918354,98.5295672 66.7879598,99.1586734 C67.2840842,99.7877796 67.9361967,100.102328 68.7443168,100.102328 C69.3171614,100.102328 69.8056065,100.023052 70.2096665,99.8644963 C70.6137266,99.7059411 70.9589626,99.478341 71.2453849,99.1816893 L71.6366563,99.8107924 C71.3246606,100.138132 70.9295572,100.397699 70.4513342,100.589499 C69.9731112,100.7813 69.4041111,100.877199 68.7443168,100.877199 Z M68.629237,93.0440988 C67.948984,93.0440988 67.3787052,93.3036651 66.9183836,93.8228056 C66.458062,94.3419461 66.1895451,94.9927799 66.1128249,95.7753266 L66.1281688,95.8136865 L70.9922093,95.8136865 L70.9922093,95.5835269 C70.9922093,94.8623564 70.7799531,94.2588327 70.3554343,93.7729377 C69.9309155,93.2870427 69.3555222,93.0440988 68.629237,93.0440988 Z M78.6948855,98.6062902 C78.6948855,98.2175742 78.535054,97.8774528 78.2153862,97.5859158 C77.8957184,97.2943788 77.3190464,97.0565495 76.4853529,96.8724209 C75.4931041,96.6576042 74.7604366,96.3737434 74.2873283,96.0208302 C73.8142199,95.667917 73.5776693,95.1692428 73.5776693,94.5247925 C73.5776693,93.8905717 73.8449076,93.3548165 74.3793921,92.917511 C74.9138766,92.4802055 75.6209711,92.261556 76.5006968,92.261556 C77.4366841,92.261556 78.1783022,92.492992 78.7255734,92.9558709 C79.2728446,93.4187499 79.5336896,93.9979792 79.5081162,94.6935763 L79.4927722,94.7396082 L78.6411815,94.7396082 C78.6411815,94.2844013 78.4481051,93.8880192 78.0619464,93.55045 C77.6757878,93.2128809 77.1553764,93.0440988 76.5006968,93.0440988 C75.8306732,93.0440988 75.328163,93.1885865 74.9931512,93.4775661 C74.6581393,93.7665458 74.4906359,94.1053886 74.4906359,94.4941046 C74.4906359,94.8777059 74.6351236,95.1948116 74.9241033,95.4454311 C75.2130829,95.6960506 75.7897549,95.9159788 76.6541366,96.1052221 C77.6412707,96.3251535 78.3803315,96.6256367 78.8713412,97.0066807 C79.3623509,97.3877247 79.607852,97.9055787 79.607852,98.5602583 C79.607852,99.2507407 79.3278273,99.8095116 78.7677693,100.236588 C78.2077114,100.663664 77.4673719,100.877199 76.5467288,100.877199 C75.5391359,100.877199 74.7476504,100.636812 74.1722484,100.156032 C73.5968464,99.6752515 73.3244936,99.1024155 73.3551817,98.4375065 L73.3705257,98.3914746 L74.2144444,98.3914746 C74.2502472,98.9898926 74.4944697,99.4246343 74.9471192,99.6957125 C75.3997688,99.9667908 75.9329666,100.102328 76.5467288,100.102328 C77.2116377,100.102328 77.735885,99.9565616 78.1194863,99.6650246 C78.5030877,99.3734876 78.6948855,99.0205797 78.6948855,98.6062902 Z M88.4076225,96.795701 C88.4076225,98.0385693 88.1263191,99.0295245 87.5637038,99.7685964 C87.0010885,100.507668 86.2262254,100.877199 85.2390914,100.877199 C84.6560173,100.877199 84.1458352,100.767235 83.7085297,100.547303 C83.2712242,100.327372 82.9144803,100.012823 82.6382874,99.6036487 L82.6382874,103.907634 L81.7176488,103.907634 L81.7176488,92.4149958 L82.4925196,92.4149958 L82.6075994,93.7038898 C82.8837924,93.2435682 83.2405363,92.888103 83.6778418,92.6374834 C84.1151473,92.3868639 84.630444,92.261556 85.2237474,92.261556 C86.2211108,92.261556 87.0010885,92.6592168 87.5637038,93.4545502 C88.1263191,94.2498836 88.4076225,95.309886 88.4076225,96.6345893 L88.4076225,96.795701 Z M87.4869839,96.6345893 C87.4869839,95.5809643 87.277285,94.7217102 86.8578809,94.0568012 C86.4384767,93.3918923 85.8247238,93.0594428 85.0166037,93.0594428 C84.3977269,93.0594428 83.8952167,93.2064878 83.509058,93.5005821 C83.1228994,93.7946765 82.8326454,94.1769934 82.6382874,94.6475443 L82.6382874,98.6369782 C82.8479894,99.0921851 83.1510299,99.4502076 83.547418,99.7110565 C83.943806,99.9719054 84.4386443,100.102328 85.0319477,100.102328 C85.8349531,100.102328 86.4448701,99.8005661 86.8617169,99.1970333 C87.2785636,98.5935006 87.4869839,97.7930645 87.4869839,96.795701 L87.4869839,96.6345893 Z M94.2920374,93.2052106 L93.6092304,93.1591786 C93.0312711,93.1591786 92.5568913,93.3215674 92.1860766,93.6463499 C91.815262,93.9711323 91.5505811,94.4173819 91.3920259,94.9851118 L91.3920259,100.716087 L90.4713873,100.716087 L90.4713873,92.4149958 L91.276946,92.4149958 L91.3920259,93.7959536 L91.3920259,93.8880175 C91.632416,93.3765491 91.9546363,92.9776097 92.3586964,92.6911874 C92.7627564,92.404765 93.2435296,92.261556 93.8010302,92.261556 C93.9186679,92.261556 94.0324679,92.2705066 94.1424336,92.288408 C94.2523993,92.3063094 94.3431836,92.3254891 94.4147892,92.3459479 L94.2920374,93.2052106 Z M101.074075,100.716087 C101.012699,100.434779 100.969225,100.191835 100.943651,99.9872481 C100.918078,99.7826607 100.905291,99.5755191 100.905291,99.3658171 C100.59841,99.8005652 100.189242,100.161145 99.6777731,100.447567 C99.1663047,100.73399 98.5909113,100.877199 97.9515758,100.877199 C97.1434556,100.877199 96.5156375,100.662385 96.0681027,100.232752 C95.6205678,99.8031182 95.3968037,99.2277249 95.3968037,98.5065544 C95.3968037,97.7393517 95.7279745,97.1255988 96.3903262,96.6652772 C97.0526778,96.2049556 97.9464555,95.9747983 99.071686,95.9747983 L100.905291,95.9747983 L100.905291,94.9467519 C100.905291,94.3534485 100.714772,93.8880192 100.333728,93.55045 C99.9526841,93.2128809 99.4194862,93.0440988 98.7341185,93.0440988 C98.094783,93.0440988 97.5641425,93.2052089 97.142181,93.5274341 C96.7202195,93.8496592 96.509242,94.243484 96.509242,94.7089202 L95.6653233,94.7012483 L95.6499793,94.6552163 C95.6192912,94.0363395 95.9018733,93.4826832 96.497734,92.9942309 C97.0935947,92.5057785 97.8518353,92.261556 98.7724785,92.261556 C99.688007,92.261556 100.42451,92.4942707 100.982011,92.9597069 C101.539512,93.4251432 101.818258,94.0925995 101.818258,94.9620958 L101.818258,99.0435936 C101.818258,99.3351306 101.83488,99.6189913 101.868126,99.8951842 C101.901371,100.171377 101.956353,100.445009 102.033073,100.716087 L101.074075,100.716087 Z M98.0589836,100.063968 C98.7187779,100.063968 99.3018431,99.9092511 99.8081969,99.5998127 C100.314551,99.2903743 100.680245,98.8952709 100.905291,98.4144905 L100.905291,96.6806212 L99.056342,96.6806212 C98.2226485,96.6806212 97.5564709,96.8583538 97.0577891,97.2138244 C96.5591074,97.5692949 96.3097703,98.0104298 96.3097703,98.5372423 C96.3097703,98.9873346 96.4644872,99.3543077 96.7739256,99.6381726 C97.083364,99.9220376 97.5117124,100.063968 98.0589836,100.063968 Z M101.273547,90.5890626 L99.9462927,90.5890626 L99.9462927,89.3845605 L101.273547,89.3845605 L101.273547,90.5890626 Z M97.6753842,90.5890626 L96.3404582,90.5890626 L96.3404582,89.3845605 L97.6753842,89.3845605 L97.6753842,90.5890626 Z M107.342089,100.102328 C107.950737,100.102328 108.487771,99.9284313 108.953207,99.5806327 C109.418643,99.2328342 109.651358,98.7495038 109.651358,98.130627 L110.464588,98.130627 L110.479932,98.1766589 C110.505506,98.9438615 110.198629,99.5857448 109.559294,100.102328 C108.919958,100.618911 108.180898,100.877199 107.342089,100.877199 C106.211744,100.877199 105.338425,100.489767 104.722105,99.7148925 C104.105786,98.9400178 103.797631,97.943948 103.797631,96.7266531 L103.797631,96.4044296 C103.797631,95.1973641 104.107064,94.2051302 104.725941,93.4276982 C105.344818,92.6502662 106.214301,92.261556 107.334417,92.261556 C108.244831,92.261556 109.003072,92.5300729 109.609162,93.0671148 C110.215252,93.6041566 110.508063,94.3099725 110.487604,95.1845835 L110.47226,95.2306154 L109.651358,95.2306154 C109.651358,94.5657065 109.427594,94.0350659 108.980059,93.6386779 C108.532524,93.2422899 107.983982,93.0440988 107.334417,93.0440988 C106.444462,93.0440988 105.785956,93.3624831 105.35888,93.9992613 C104.931804,94.6360395 104.718269,95.4377543 104.718269,96.4044296 L104.718269,96.7266531 C104.718269,97.7086725 104.930526,98.5167805 105.355044,99.1510014 C105.779563,99.7852222 106.441905,100.102328 107.342089,100.102328 Z M113.32624,93.8343136 C113.602433,93.3381892 113.970685,92.9520363 114.431006,92.6758434 C114.891328,92.3996504 115.428362,92.261556 116.042124,92.261556 C116.916735,92.261556 117.588027,92.5326302 118.056021,93.0747868 C118.524014,93.6169433 118.758008,94.4582963 118.758008,95.5988709 L118.758008,100.716087 L117.837369,100.716087 L117.837369,95.5835269 C117.837369,94.6833424 117.659636,94.0376232 117.304166,93.6463499 C116.948695,93.2550765 116.458972,93.0594428 115.83498,93.0594428 C115.205874,93.0594428 114.680348,93.2243889 114.258387,93.554286 C113.836425,93.8841832 113.525713,94.3227608 113.32624,94.870032 L113.32624,100.716087 L112.405601,100.716087 L112.405601,88.7477854 L113.32624,88.7477854 L113.32624,93.8343136 Z" id="kostenloses-Erst-Ges" fill="#FFFFFF" transform="translate(70.888637, 86.983653) rotate(-10.000000) translate(-70.888637, -86.983653) "></path>
                <path d="M56.185045,60.9426438 C62.74118,60.9554416 69.0645642,58.5132778 73.9101421,54.0970073 C74.2611818,53.7654537 74.4344007,53.2872024 74.3771004,52.8077513 C74.3198002,52.3283002 74.0387559,51.9043389 73.6194695,51.6648487 C70.9034046,50.1601065 67.9843857,49.0552348 64.95268,48.3844007 C64.8956324,48.3704413 64.8560834,48.3185333 64.8577665,48.2598267 L64.8577665,46.4801985 C65.9028867,45.1165306 66.6835443,43.5692995 67.159419,41.9184181 C68.3458378,40.7319993 68.8737942,38.887118 69.1526026,37.8845941 C69.615306,36.2592003 70.0780093,33.904159 68.8026091,32.2194443 L68.7492202,32.1482591 C69.3424297,29.1822121 70.1254661,22.2120015 64.822174,18.6764734 C65.4431232,18.0451453 65.7813444,17.1888892 65.7594448,16.3036358 C65.7533519,16.2181718 65.7126429,16.1388965 65.646735,16.0841483 C65.5797776,16.0307125 65.4947657,16.0052089 65.4094513,16.0129632 C65.3441982,16.0129632 58.7061849,16.7663391 55.5147183,16.1078767 C52.3232517,15.4494143 48.6334892,17.9171654 47.8919774,20.4679659 C46.652578,20.6302119 45.5249845,21.2684723 44.7479675,22.2475941 C43.3005366,24.0272223 42.8556295,26.8746275 43.4310427,30.688964 C43.4666352,31.1813278 43.5318883,31.6618274 43.6149376,32.1601233 L43.5556166,32.2313084 C42.2920806,33.8804306 42.7547839,36.241404 43.2174873,37.8608657 C43.5022278,38.8633896 44.0242521,40.7201351 45.2106709,41.8887576 C45.6855436,43.5520585 46.4682798,45.1114943 47.5182555,46.4861305 L47.5182555,48.2657588 C47.5199386,48.3244654 47.4803897,48.3763734 47.423342,48.3903327 C44.396377,49.0585961 41.4814652,50.1594298 38.7684167,51.6589166 C38.3491303,51.8984068 38.068086,52.3223681 38.0107858,52.8018192 C37.9534855,53.2812703 38.1267044,53.7595216 38.4777441,54.0910752 C43.3178943,58.5053551 49.634253,60.9493733 56.185045,60.9426438 L56.185045,60.9426438 Z M56.185045,54.7910623 C53.3769067,54.822738 50.7260744,53.4973218 49.066532,51.2318058 C49.7927319,50.8275438 50.3456483,50.1712193 50.6207407,49.3869246 C51.3611495,49.8762906 52.1578402,50.2746359 52.9935783,50.5733434 C55.064307,51.3057111 57.3235792,51.3057111 59.3943079,50.5733434 C60.2292005,50.2726586 61.0256621,49.8744278 61.7671455,49.3869246 C62.0381757,50.1813195 62.5940225,50.8470675 63.3272862,51.2555342 C61.6577508,53.5189629 58.9972402,54.8359598 56.185045,54.7910623 L56.185045,54.7910623 Z M46.0589603,37.060033 C45.4657509,34.9956643 45.720831,34.2482204 45.9225222,33.9872083 C46.0655545,33.809388 46.2886231,33.7156993 46.5157316,33.7380603 L46.6225093,33.7380603 C46.7940778,33.7482564 46.9420378,33.6187914 46.9547065,33.4473877 C46.9547065,33.399931 47.3224964,28.9567925 49.9563462,27.3551271 C51.273271,26.5542944 52.9639179,26.5839549 54.9808299,27.4441085 C59.1332957,29.2237367 62.1823921,29.0932307 64.0510017,28.6779841 C66.1865556,30.249989 65.5696178,32.771129 65.4272475,33.2575607 L65.4272475,33.3168817 C65.3917603,33.4174018 65.4096251,33.5290568 65.4747043,33.6134864 C65.5411966,33.6981623 65.646393,33.7429267 65.7535127,33.7321282 C66.01527,33.6826969 66.2836726,33.7751718 66.4594319,33.9753441 C66.655191,34.2363562 66.904339,34.9838001 66.3229938,37.0481688 C65.5755499,39.6938828 64.9645442,39.9430308 64.7984456,39.9548949 C64.6521475,39.964886 64.5331041,40.0764892 64.5137051,40.2218392 C64.0806622,43.0395839 61.8383306,46.5395194 58.3977161,47.7793271 C56.9701948,48.2860758 55.4117593,48.2860758 53.984238,47.7793271 C50.4249816,46.515791 48.3131561,42.9743308 47.8860453,40.209975 C47.8645385,40.0657196 47.7466463,39.9551958 47.6013048,39.9430308 C47.4174099,39.9548949 46.8064042,39.6998149 46.0589603,37.060033 Z M85.7743303,22.0933596 C82.6692166,21.9789932 79.6510989,23.1322756 77.4135066,25.2881958 C75.1759143,27.444116 73.9112582,30.417286 73.9101421,33.524505 L73.9101421,43.5438119 C73.905396,43.920854 74.0510431,44.2842546 74.3148757,44.5536533 C74.5787083,44.823052 74.9389894,44.9762531 75.3160484,44.9793786 L85.3353553,44.9793786 C91.6551549,45.1005981 96.8766326,40.0756562 96.9978521,33.7558566 C97.1190717,27.436057 92.0941299,22.2145793 85.7743303,22.0933596 Z M80.7676429,35.1795592 C79.8568579,35.1795592 79.1185207,34.4412221 79.1185207,33.530437 C79.1185207,32.619652 79.8568579,31.8813149 80.7676429,31.8813149 C81.6784279,31.8813149 82.416765,32.619652 82.416765,33.530437 C82.4135112,34.4398709 81.6770767,35.1763054 80.7676429,35.1795592 Z M85.3353553,35.1795592 C84.6668135,35.1891749 84.0586267,34.7941766 83.7955435,34.1794995 C83.5324604,33.5648225 83.6665519,32.8521274 84.1350374,32.3750928 C84.603523,31.8980583 85.3136769,31.7511019 85.9330105,32.0030277 C86.5523441,32.2549534 86.9582749,32.8558985 86.9607491,33.524505 C86.9608941,34.4271072 86.2378126,35.1633835 85.3353553,35.1795592 Z M89.9030678,35.1795592 C88.9922828,35.1795592 88.2539456,34.4412221 88.2539456,33.530437 C88.2539456,32.619652 88.9922828,31.8813149 89.9030678,31.8813149 C90.8138528,31.8813149 91.5521899,32.619652 91.5521899,33.530437 C91.5491075,34.4307304 90.8269503,35.1634301 89.9267962,35.1795592 L89.9030678,35.1795592 Z" id="Shape" fill="#FFFFFF" fill-rule="nonzero" transform="translate(67.500000, 38.471347) rotate(-10.000000) translate(-67.500000, -38.471347) "></path>
            </g>
        </g>
    </g>
</svg>